HIERARCHY
ROOT Root
{
  OFFSET 0.0 0.0 0.0
  CHANNELS 6 Xposition Yposition Zposition Zrotation Yrotation Xrotation
  JOINT Hips
  {
    OFFSET 0.0 100.0 0.0
    CHANNELS 6 Xposition Yposition Zposition Zrotation Yrotation Xrotation
    JOINT Spine1
    {
      OFFSET -0.013727 5.003763 -0.053727
      CHANNELS 3 Zrotation Yrotation Xrotation
      JOINT Spine2
      {
        OFFSET -0.0 7.125301 -0.029825
        CHANNELS 3 Zrotation Yrotation Xrotation
        JOINT Chest
        {
          OFFSET -1e-06 7.550063 -0.815971
          CHANNELS 3 Zrotation Yrotation Xrotation
          JOINT Neck1
          {
            OFFSET -0.181677 26.311295 -0.553348
            CHANNELS 3 Zrotation Yrotation Xrotation
            JOINT Neck2
            {
              OFFSET -3e-06 7.709397 2.302585
              CHANNELS 3 Zrotation Yrotation Xrotation
              JOINT Head
              {
                OFFSET -5e-06 6.128916 1.953709
                CHANNELS 3 Zrotation Yrotation Xrotation
                JOINT HeadEnd
                {
                  OFFSET 0.003598 16.065403 -1.835379
                  CHANNELS 3 Zrotation Yrotation Xrotation
                }
                JOINT Jaw
                {
                  OFFSET 0.002637 0.475592 3.094941
                  CHANNELS 3 Zrotation Yrotation Xrotation
                }
                JOINT LeftEye
                {
                  OFFSET 3.206381 5.380205 7.586883
                  CHANNELS 3 Zrotation Yrotation Xrotation
                }
                JOINT RightEye
                {
                  OFFSET -3.22244 5.361869 7.558234
                  CHANNELS 3 Zrotation Yrotation Xrotation
                }
              }
            }
          }
          JOINT LeftShoulder
          {
            OFFSET 1.621652 23.237164 5.113413
            CHANNELS 3 Zrotation Yrotation Xrotation
            JOINT LeftArm
            {
              OFFSET 14.919846 2e-06 -5.502326
              CHANNELS 3 Zrotation Yrotation Xrotation
              JOINT LeftForeArm
              {
                OFFSET 28.739307 0.0 -0.002588
                CHANNELS 3 Zrotation Yrotation Xrotation
                JOINT LeftHand
                {
                  OFFSET 27.093981 -1e-06 0.002609
                  CHANNELS 3 Zrotation Yrotation Xrotation
                  JOINT LeftHandThumb1
                  {
                    OFFSET 2.276482 -1.392045 3.191413
                    CHANNELS 3 Zrotation Yrotation Xrotation
                    JOINT LeftHandThumb2
                    {
                      OFFSET 4.012836 -1.828127 1.641654
                      CHANNELS 3 Zrotation Yrotation Xrotation
                      JOINT LeftHandThumb3
                      {
                        OFFSET 2.798515 0.0 -3e-06
                        CHANNELS 3 Zrotation Yrotation Xrotation
                        JOINT LeftHandThumbEnd
                        {
                          OFFSET 3.180793 -4e-06 4e-06
                          CHANNELS 3 Zrotation Yrotation Xrotation
                        }
                      }
                    }
                  }
                  JOINT LeftHandIndex1
                  {
                    OFFSET 3.247555 -0.531998 2.296169
                    CHANNELS 3 Zrotation Yrotation Xrotation
                    JOINT LeftHandIndex2
                    {
                      OFFSET 6.364578 0.01206 0.1786
                      CHANNELS 3 Zrotation Yrotation Xrotation
                      JOINT LeftHandIndex3
                      {
                        OFFSET 3.662364 0.0 0.0
                        CHANNELS 3 Zrotation Yrotation Xrotation
                        JOINT LeftHandIndex4
                        {
                          OFFSET 2.329242 4e-06 4e-06
                          CHANNELS 3 Zrotation Yrotation Xrotation
                          JOINT LeftHandIndexEnd
                          {
                            OFFSET 2.759615 -0.180537 -0.113024
                            CHANNELS 3 Zrotation Yrotation Xrotation
                          }
                        }
                      }
                    }
                  }
                  JOINT LeftHandMiddle1
                  {
                    OFFSET 3.163495 0.240981 1.000332
                    CHANNELS 3 Zrotation Yrotation Xrotation
                    JOINT LeftHandMiddle2
                    {
                      OFFSET 6.19078 -0.259278 -1.002548
                      CHANNELS 3 Zrotation Yrotation Xrotation
                      JOINT LeftHandMiddle3
                      {
                        OFFSET 4.35652 -4e-06 -1e-06
                        CHANNELS 3 Zrotation Yrotation Xrotation
                        JOINT LeftHandMiddle4
                        {
                          OFFSET 2.996877 -8e-06 0.0
                          CHANNELS 3 Zrotation Yrotation Xrotation
                          JOINT LeftHandMiddleEnd
                          {
                            OFFSET 2.304287 -0.294569 -0.031741
                            CHANNELS 3 Zrotation Yrotation Xrotation
                          }
                        }
                      }
                    }
                  }
                  JOINT LeftHandRing1
                  {
                    OFFSET 2.882643 -0.053652 -0.322543
                    CHANNELS 3 Zrotation Yrotation Xrotation
                    JOINT LeftHandRing2
                    {
                      OFFSET 5.854541 -0.486202 -1.373841
                      CHANNELS 3 Zrotation Yrotation Xrotation
                      JOINT LeftHandRing3
                      {
                        OFFSET 4.350578 0.0 3e-06
                        CHANNELS 3 Zrotation Yrotation Xrotation
                        JOINT LeftHandRing4
                        {
                          OFFSET 2.651321 7e-06 2e-06
                          CHANNELS 3 Zrotation Yrotation Xrotation
                          JOINT LeftHandRingEnd
                          {
                            OFFSET 1.936105 0.077687 -7.1e-05
                            CHANNELS 3 Zrotation Yrotation Xrotation
                          }
                        }
                      }
                    }
                  }
                  JOINT LeftHandPinky1
                  {
                    OFFSET 2.8655 -0.310005 -1.600378
                    CHANNELS 3 Zrotation Yrotation Xrotation
                    JOINT LeftHandPinky2
                    {
                      OFFSET 5.087849 -1.331141 -1.77123
                      CHANNELS 3 Zrotation Yrotation Xrotation
                      JOINT LeftHandPinky3
                      {
                        OFFSET 3.070974 4e-06 0.0
                        CHANNELS 3 Zrotation Yrotation Xrotation
                        JOINT LeftHandPinky4
                        {
                          OFFSET 1.549672 0.0 1e-06
                          CHANNELS 3 Zrotation Yrotation Xrotation
                          JOINT LeftHandPinkyEnd
                          {
                            OFFSET 1.944893 -0.157802 0.057219
                            CHANNELS 3 Zrotation Yrotation Xrotation
                          }
                        }
                      }
                    }
                  }
                }
              }
            }
          }
          JOINT RightShoulder
          {
            OFFSET -1.380118 23.180309 5.214158
            CHANNELS 3 Zrotation Yrotation Xrotation
            JOINT RightArm
            {
              OFFSET -15.037196 1.2e-05 -5.545604
              CHANNELS 3 Zrotation Yrotation Xrotation
              JOINT RightForeArm
              {
                OFFSET -28.736639 2e-06 -0.002597
                CHANNELS 3 Zrotation Yrotation Xrotation
                JOINT RightHand
                {
                  OFFSET -27.133619 -0.0 0.002613
                  CHANNELS 3 Zrotation Yrotation Xrotation
                  JOINT RightHandThumb1
                  {
                    OFFSET -2.274032 -1.383988 3.163127
                    CHANNELS 3 Zrotation Yrotation Xrotation
                    JOINT RightHandThumb2
                    {
                      OFFSET -4.011429 -1.827466 1.640914
                      CHANNELS 3 Zrotation Yrotation Xrotation
                      JOINT RightHandThumb3
                      {
                        OFFSET -2.794935 -4e-06 -3e-06
                        CHANNELS 3 Zrotation Yrotation Xrotation
                        JOINT RightHandThumbEnd
                        {
                          OFFSET -3.183852 4e-06 1e-06
                          CHANNELS 3 Zrotation Yrotation Xrotation
                        }
                      }
                    }
                  }
                  JOINT RightHandIndex1
                  {
                    OFFSET -3.253266 -0.520057 2.282866
                    CHANNELS 3 Zrotation Yrotation Xrotation
                    JOINT RightHandIndex2
                    {
                      OFFSET -6.341917 0.012471 0.178266
                      CHANNELS 3 Zrotation Yrotation Xrotation
                      JOINT RightHandIndex3
                      {
                        OFFSET -3.654871 -8e-06 -0.0
                        CHANNELS 3 Zrotation Yrotation Xrotation
                        JOINT RightHandIndex4
                        {
                          OFFSET -2.327586 0.0 1e-06
                          CHANNELS 3 Zrotation Yrotation Xrotation
                          JOINT RightHandIndexEnd
                          {
                            OFFSET -2.76179 -0.180656 -0.113078
                            CHANNELS 3 Zrotation Yrotation Xrotation
                          }
                        }
                      }
                    }
                  }
                  JOINT RightHandMiddle1
                  {
                    OFFSET -3.168106 0.246593 1.00103
                    CHANNELS 3 Zrotation Yrotation Xrotation
                    JOINT RightHandMiddle2
                    {
                      OFFSET -6.180828 -0.258836 -1.000895
                      CHANNELS 3 Zrotation Yrotation Xrotation
                      JOINT RightHandMiddle3
                      {
                        OFFSET -4.348901 0.0 -0.0
                        CHANNELS 3 Zrotation Yrotation Xrotation
                        JOINT RightHandMiddle4
                        {
                          OFFSET -3.00024 -4e-06 -2e-06
                          CHANNELS 3 Zrotation Yrotation Xrotation
                          JOINT RightHandMiddleEnd
                          {
                            OFFSET -2.30252 -0.29437 -0.031706
                            CHANNELS 3 Zrotation Yrotation Xrotation
                          }
                        }
                      }
                    }
                  }
                  JOINT RightHandRing1
                  {
                    OFFSET -2.88569 -0.067952 -0.308858
                    CHANNELS 3 Zrotation Yrotation Xrotation
                    JOINT RightHandRing2
                    {
                      OFFSET -5.854198 -0.48613 -1.373731
                      CHANNELS 3 Zrotation Yrotation Xrotation
                      JOINT RightHandRing3
                      {
                        OFFSET -4.33881 -4e-06 -0.0
                        CHANNELS 3 Zrotation Yrotation Xrotation
                        JOINT RightHandRing4
                        {
                          OFFSET -2.654903 -4e-06 4e-06
                          CHANNELS 3 Zrotation Yrotation Xrotation
                          JOINT RightHandRingEnd
                          {
                            OFFSET -1.933568 0.077527 -5.2e-05
                            CHANNELS 3 Zrotation Yrotation Xrotation
                          }
                        }
                      }
                    }
                  }
                  JOINT RightHandPinky1
                  {
                    OFFSET -2.866425 -0.342796 -1.584145
                    CHANNELS 3 Zrotation Yrotation Xrotation
                    JOINT RightHandPinky2
                    {
                      OFFSET -5.091371 -1.332055 -1.772385
                      CHANNELS 3 Zrotation Yrotation Xrotation
                      JOINT RightHandPinky3
                      {
                        OFFSET -3.062664 -4e-06 1e-06
                        CHANNELS 3 Zrotation Yrotation Xrotation
                        JOINT RightHandPinky4
                        {
                          OFFSET -1.546529 4e-06 -2e-06
                          CHANNELS 3 Zrotation Yrotation Xrotation
                          JOINT RightHandPinkyEnd
                          {
                            OFFSET -1.945119 -0.157718 0.057211
                            CHANNELS 3 Zrotation Yrotation Xrotation
                          }
                        }
                      }
                    }
                  }
                }
              }
            }
          }
        }
      }
    }
    JOINT LeftLeg
    {
      OFFSET 10.043214 -8.434526 2.595655
      CHANNELS 3 Zrotation Yrotation Xrotation
      JOINT LeftShin
      {
        OFFSET -1e-06 -43.221752 -0.802913
        CHANNELS 3 Zrotation Yrotation Xrotation
        JOINT LeftFoot
        {
          OFFSET 1e-06 -42.155094 -3.481523
          CHANNELS 3 Zrotation Yrotation Xrotation
          JOINT LeftToeBase
          {
            OFFSET 0.0 -5.059472 13.231529
            CHANNELS 3 Zrotation Yrotation Xrotation
            JOINT LeftToeEnd
            {
              OFFSET -0.009607 -1.647619 6.513017
              CHANNELS 3 Zrotation Yrotation Xrotation
            }
          }
        }
      }
    }
    JOINT RightLeg
    {
      OFFSET -10.047278 -8.29526 2.620317
      CHANNELS 3 Zrotation Yrotation Xrotation
      JOINT RightShin
      {
        OFFSET 1e-06 -43.362206 -0.805556
        CHANNELS 3 Zrotation Yrotation Xrotation
        JOINT RightFoot
        {
          OFFSET 2e-06 -42.117393 -3.478398
          CHANNELS 3 Zrotation Yrotation Xrotation
          JOINT RightToeBase
          {
            OFFSET -0.0 -5.079609 13.284196
            CHANNELS 3 Zrotation Yrotation Xrotation
            JOINT RightToeEnd
            {
              OFFSET 0.009532 -1.634378 6.460591
              CHANNELS 3 Zrotation Yrotation Xrotation
            }
          }
        }
      }
    }
  }
}
MOTION
Frames: 4
Frame Time: 0.03333333333333333
1.424736 0.0 -1.917558 0.0 -2.231454 0.0 0.0 99.441521 0.0 0.273423 0.016499 -6.085989 1.081542 0.016277 2.530573 -0.291202 -0.118054 -4.413074 -1.44579 -2.312218 10.576276 -4.075408 6.718834 21.21274 -0.414327 1.684553 -3.830631 1.589818 0.803967 -12.444537 7.7e-05 -2.2e-05 6e-06 0.011186 0.049941 0.010187 0.658594 -3.692765 -10.675672 -0.63955 3.807612 -10.677137 -12.849272 0.889101 14.790426 -70.003433 7.345065 -2.196682 0.719753 -45.652538 -0.726812 26.601957 -13.657296 5.764265 -5.882113 9.861292 0.70259 -10.93688 -0.360576 7.156209 2e-06 8.774831 -0.0 -15.947078 18.072798 6.109234 -1.844034 2.498505 -2.507278 -10.16361 4.678947 4.621109 -20.976044 -6e-06 -0.0 -21.226309 2.451695 -3.594003 -0.0 -7e-06 -1e-06 -1.362683 2.240796 -0.746324 -21.334936 0.584909 3.00832 -13.821229 -3e-06 -0.0 -23.887196 -0.249083 -0.839486 -60.215652 2.78143 -1.118054 -0.294024 1.679687 0.833257 -14.218221 0.093213 1.300577 -34.212082 -0.287569 0.967166 -20.03323 0.964532 1.21284 -0.0 0.0 -1e-06 -3.44039 0.788233 0.501655 -15.928201 -3.167313 2.999705 -6.338832 -1e-06 -1e-06 -18.123463 3.648183 -4.905674 -3e-06 -0.0 -4e-06 9.438986 4.495843 16.351248 72.013802 3.107624 2.886342 -1.265558 31.302454 -0.386802 -3.484738 -0.654063 -1.297834 2.243542 -5.255038 -3.180158 14.282896 -0.826595 6.952505 -3e-06 -12.690607 1e-06 16.406303 -17.796022 2.613543 1.665667 -1.955922 -2.878299 4.7278 -4.170588 4.993925 11.020529 2e-06 -1e-06 12.109055 -3.735716 -2.866783 0.0 0.0 -0.0 1.291986 -1.92855 -1.498089 14.800132 0.567468 3.865608 14.242577 -1.341736 -6.660658 19.631973 0.143926 -0.648244 49.893612 -0.44622 -6.399348 0.35303 -1.511151 -0.03194 20.222801 3.684311 2.316631 18.787283 6e-06 0.0 10.751633 -0.479868 1.397907 -1e-06 -0.0 0.0 3.273808 0.305947 -0.580111 21.486822 11.83038 2.266135 8.16293 3e-06 -0.0 18.399092 -3.798985 -4.940577 6e-06 0.0 -1e-06 2.483515 9.986084 1.604334 -0.018646 -0.029296 13.10488 -4.173384 6.837924 -8.552087 1.639591 -2.106797 -1.905827 -0.0 -0.0 2e-06 -4.557556 1.520857 1.059381 -0.084262 0.043771 12.315709 3.885328 -6.540633 -7.272904 -1.442049 0.934739 -1.788533 -0.0 -0.0 -1e-06 
1.315956 0.0 -1.724298 0.0 -2.762225 0.0 0.0 99.460793 0.0 0.278846 0.014098 -5.862834 1.115037 -0.014147 2.519787 -0.283312 -0.289024 -4.402735 -1.302738 -2.504656 10.573679 -3.776383 6.372495 20.469006 -0.374577 1.752419 -3.828889 1.181193 0.948566 -12.603681 7.7e-05 -2.3e-05 6e-06 0.010993 0.044848 0.017235 0.660071 -3.697182 -10.672033 -0.641089 3.800991 -10.668681 -13.178346 0.568154 14.937687 -69.881355 6.88585 -1.985527 0.661207 -43.715145 -0.681809 26.139643 -13.678697 5.570251 -5.882103 9.861279 0.70259 -10.936868 -0.360575 7.156206 1e-06 8.774822 -2e-06 -15.924653 18.007748 6.072684 -1.844031 2.498505 -2.507277 -10.163595 4.678944 4.621108 -20.976017 -5e-06 3e-06 -21.226282 2.451696 -3.593999 0.0 -6e-06 -0.0 -1.362682 2.240798 -0.746324 -21.334909 0.584907 3.008322 -13.82121 -2e-06 2e-06 -23.887161 -0.24908 -0.839482 -60.160198 2.769621 -1.106354 -0.294025 1.67969 0.833255 -14.218203 0.093212 1.30058 -34.212036 -0.287566 0.967171 -20.033205 0.964535 1.212845 -0.0 1e-06 1e-06 -3.440387 0.788233 0.501656 -15.928183 -3.167309 2.999706 -6.338823 -2e-06 1e-06 -18.123444 3.64818 -4.905666 -5e-06 -0.0 -3e-06 9.886414 4.243911 16.376085 71.444901 3.644702 4.346581 -1.301592 31.529966 -0.372574 -3.791023 -0.277631 -0.953097 2.243542 -5.255036 -3.180157 14.282889 -0.826594 6.9525 -2e-06 -12.690603 1e-06 16.405041 -17.751602 2.605001 1.665666 -1.955922 -2.878299 4.727798 -4.170588 4.993924 11.020526 3e-06 -2e-06 12.109052 -3.735716 -2.866786 0.0 0.0 -0.0 1.291985 -1.928551 -1.498089 14.800125 0.567468 3.865606 14.242569 -1.341737 -6.660658 19.631964 0.143927 -0.648245 49.906101 -0.474754 -6.378807 0.353029 -1.511151 -0.031939 20.22279 3.684311 2.316629 18.78727 5e-06 -3e-06 10.751625 -0.479868 1.397905 -1e-06 -0.0 3e-06 3.273807 0.305947 -0.580111 21.486809 11.830376 2.266132 8.162925 3e-06 -1e-06 18.39908 -3.798983 -4.940576 4e-06 1e-06 -1e-06 2.549525 10.199203 1.699272 -0.015001 -0.024577 12.822056 -4.239137 7.147764 -8.576636 1.640252 -2.098697 -1.840583 -0.0 0.0 2e-06 -4.484203 1.745614 0.836518 -0.083806 0.055455 12.320955 3.955559 -6.258234 -7.315612 -1.441072 0.932276 -1.727172 -0.0 0.0 -1e-06 
1.194319 0.0 -1.530007 0.0 -3.241604 0.0 0.0 99.477539 0.0 0.264986 0.010382 -5.643053 1.148747 -0.047572 2.503064 -0.284712 -0.432562 -4.402224 -1.145809 -2.687839 10.55425 -3.465669 6.051894 19.806416 -0.364426 1.775993 -3.830657 0.759385 1.030409 -12.697784 7.7e-05 -2.3e-05 6e-06 0.010821 0.037454 0.021859 0.661379 -3.70353 -10.673875 -0.642534 3.791953 -10.666484 -13.402162 0.240446 15.08439 -69.738564 6.463809 -1.672228 0.584838 -42.004074 -0.634476 25.844181 -13.659513 5.256854 -5.882109 9.861292 0.70259 -10.936878 -0.360573 7.156209 1e-06 8.77483 0.0 -15.928343 17.973833 6.036374 -1.844033 2.498504 -2.507279 -10.163604 4.678946 4.621111 -20.976038 -6e-06 2e-06 -21.226299 2.451694 -3.594003 -1e-06 -5e-06 0.0 -1.362682 2.240798 -0.746323 -21.334929 0.584908 3.008324 -13.821221 -4e-06 1e-06 -23.887182 -0.24908 -0.839484 -60.097736 2.755245 -1.110053 -0.294023 1.679688 0.833257 -14.218219 0.093216 1.30058 -34.212074 -0.287569 0.967167 -20.033226 0.964534 1.212843 -0.0 1e-06 -0.0 -3.440388 0.788232 0.501655 -15.9282 -3.167312 2.999709 -6.33883 -1e-06 0.0 -18.123459 3.648184 -4.905673 -4e-06 -0.0 -2e-06 10.336422 4.016574 16.373117 70.829117 4.096265 5.733322 -1.30164 31.792253 -0.352621 -4.20921 0.141873 -0.745636 2.243542 -5.255037 -3.180158 14.282896 -0.826594 6.952504 -3e-06 -12.690605 0.0 16.392429 -17.70694 2.59407 1.665667 -1.955921 -2.878299 4.7278 -4.170588 4.993925 11.02053 3e-06 -1e-06 12.109056 -3.735717 -2.866785 -1e-06 0.0 -1e-06 1.291986 -1.92855 -1.498089 14.800136 0.567468 3.865608 14.242579 -1.341736 -6.660658 19.631979 0.143927 -0.648244 49.906269 -0.502655 -6.3563 0.35303 -1.511151 -0.03194 20.222801 3.684311 2.316631 18.787283 5e-06 -1e-06 10.751633 -0.479868 1.397906 -2e-06 0.0 1e-06 3.273808 0.305948 -0.580111 21.48682 11.830379 2.266134 8.16293 3e-06 -1e-06 18.39909 -3.798985 -4.940577 4e-06 1e-06 -2e-06 2.633671 10.383178 1.765464 -0.008188 -0.021238 12.581705 -4.319587 7.446609 -8.615997 1.640555 -2.093642 -1.790251 -0.0 0.0 2e-06 -4.385452 1.959907 0.630589 -0.082745 0.066274 12.313608 4.016874 -6.009823 -7.357365 -1.440323 0.933545 -1.695861 0.0 0.0 -1e-06 
1.066233 0.0 -1.348495 0.0 -3.655331 0.0 0.0 99.495743 0.0 0.250028 0.007281 -5.424691 1.165672 -0.085892 2.474475 -0.286941 -0.558331 -4.411818 -0.984149 -2.855805 10.514036 -3.180733 5.787458 19.24271 -0.361828 1.765864 -3.827945 0.336034 1.068296 -12.653176 7.7e-05 -2.2e-05 6e-06 0.010773 0.031325 0.021679 0.66285 -3.708803 -10.681109 -0.643938 3.784176 -10.671234 -13.513434 -0.078629 15.224041 -69.586456 6.071773 -1.259076 0.460527 -40.552528 -0.592231 25.694254 -13.535435 4.925247 -5.882107 9.861282 0.70259 -10.936872 -0.360576 7.156206 0.0 8.774824 0.0 -15.940798 17.971994 5.993992 -1.844032 2.498503 -2.507278 -10.163599 4.678942 4.621109 -20.976021 -3e-06 5e-06 -21.226286 2.451697 -3.593999 1e-06 -6e-06 -1e-06 -1.362681 2.240798 -0.746323 -21.334911 0.584911 3.008324 -13.821213 -2e-06 4e-06 -23.887167 -0.249078 -0.839481 -59.998226 2.738545 -1.134147 -0.294024 1.679688 0.833255 -14.218208 0.093216 1.300581 -34.212048 -0.287564 0.967171 -20.033211 0.964537 1.212845 1e-06 0.0 1e-06 -3.440388 0.788233 0.501656 -15.928185 -3.167311 2.999708 -6.338826 -1e-06 0.0 -18.123444 3.648183 -4.905668 -4e-06 2e-06 -3e-06 10.778325 3.821045 16.341766 70.155251 4.47341 7.039098 -1.231882 32.045197 -0.312432 -4.658655 0.604152 -0.701468 2.243542 -5.255037 -3.180159 14.282896 -0.826595 6.952507 -3e-06 -12.690607 1e-06 16.378408 -17.663528 2.573025 1.665667 -1.955921 -2.8783 4.727801 -4.170588 4.993927 11.02053 2e-06 -1e-06 12.109056 -3.735716 -2.866785 -1e-06 -0.0 -1e-06 1.291986 -1.928551 -1.49809 14.800134 0.567469 3.86561 14.242577 -1.341735 -6.660661 19.631973 0.143925 -0.648244 49.880394 -0.517514 -6.341446 0.353029 -1.511151 -0.03194 20.222801 3.68431 2.316632 18.787283 5e-06 -0.0 10.751633 -0.479869 1.397906 -0.0 -1e-06 0.0 3.273808 0.305947 -0.580111 21.486824 11.830378 2.266134 8.16293 2e-06 1e-06 18.399088 -3.798987 -4.940576 4e-06 0.0 -1e-06 2.715052 10.52387 1.823104 -0.002446 -0.025263 12.334904 -4.391474 7.718368 -8.635943 1.640496 -2.085104 -1.737772 -0.0 -0.0 2e-06 -4.285355 2.168991 0.448436 -0.074607 0.072552 12.287702 4.054512 -5.826562 -7.394928 -1.44003 0.93695 -1.686204 0.0 0.0 -1e-06 
